<svg width="900" height="134" viewBox="0 0 900 134" fill="none" xmlns="http://www.w3.org/2000/svg">
<rect width="900" height="133.683" rx="20" fill="#FF4500"/>
<rect x="234.918" y="36.6655" width="289.43" height="60.3521" rx="30.176" fill="white"/>
<path d="M276.464 82.0918H268.59L268.59 51.815L276.464 51.815L276.464 82.0918Z" fill="#FF4500"/>
<path d="M313.063 82.0918H305.188L290.704 63.5487V82.0918L282.83 82.0918L282.83 51.815L290.704 51.815L305.188 70.336V51.815L313.063 51.815V82.0918Z" fill="#FF4500"/>
<path d="M336.774 58.4027L327.303 58.4027V63.5265H335.931V70.1142H327.303V82.0918H319.428V51.8151L336.774 51.8151V58.4027Z" fill="#FF4500"/>
<path d="M373.638 67.0533C373.638 71.1641 372.271 74.7722 369.535 77.8775C366.415 81.4116 362.193 83.1787 356.87 83.1787C351.561 83.1787 347.347 81.4116 344.227 77.8775C341.491 74.7722 340.123 71.1641 340.123 67.0533C340.123 65.1753 340.493 63.253 341.232 61.2863C341.972 59.3048 342.962 57.6116 344.204 56.2069C347.325 52.6727 351.546 50.9056 356.87 50.9056C362.193 50.9056 366.415 52.6727 369.535 56.2069C372.271 59.3122 373.638 62.9276 373.638 67.0533ZM365.454 67.0533C365.454 64.9239 364.773 63.0829 363.413 61.5302C361.668 59.5488 359.487 58.558 356.87 58.558C355.066 58.558 353.432 59.0682 351.968 60.0885C350.504 61.094 349.461 62.4397 348.84 64.1254C348.485 65.0866 348.308 66.0625 348.308 67.0533C348.308 69.0939 348.988 70.9201 350.349 72.5319C352.034 74.5282 354.208 75.5263 356.87 75.5263C359.531 75.5263 361.712 74.5356 363.413 72.5541C364.773 70.9719 365.454 69.1383 365.454 67.0533Z" fill="#FF4500"/>
<path d="M396.595 58.4028L390.074 58.4028V82.0918H382.2V58.4028H375.79V51.8151L396.595 51.8151V58.4028Z" fill="#FF4500"/>
<path d="M417.312 82.0918H400.078V51.8151L417.312 51.8151V58.4028H407.952V63.5265L416.802 63.5265V70.1142L407.952 70.1142V75.5041H417.312V82.0918Z" fill="#FF4500"/>
<path d="M451.072 82.0918H442.665L440.713 76.8128H429.844L427.76 82.0918L419.442 82.0918L431.087 51.8151L439.671 51.8151L451.072 82.0918ZM438.584 70.824L435.323 61.1754L432.018 70.824L438.584 70.824Z" fill="#FF4500"/>
<path d="M491.152 82.0919H483.278L481.038 64.6577L473.718 82.0919H470.591L463.604 64.6577L461.031 82.0918H453.201L458.347 51.8151L466.11 51.8151L472.254 67.9627L478.753 51.8151L486.583 51.8151L491.152 82.0919Z" fill="#FF4500"/>
<path d="M540.247 33.0115L541.337 38.0867L546.412 39.1765L541.337 40.2664L540.247 45.3415L539.157 40.2664L534.082 39.1765L539.157 38.0867L540.247 33.0115Z" fill="white"/>
<rect x="549.657" y="38.8521" width="99.8506" height="0.648947" fill="white"/>
<path d="M658.917 33.0115L660.007 38.0867L665.082 39.1765L660.007 40.2664L658.917 45.3415L657.827 40.2664L652.752 39.1765L657.827 38.0867L658.917 33.0115Z" fill="white"/>
<path d="M555.57 80.823V49.5243H568.14C576.028 49.5243 579.403 52.477 579.782 56.9483C580.162 59.5635 578.77 62.8115 576.113 63.9504C579.361 65.4268 580.963 69.1387 580.584 72.7242C580.035 77.9125 576.534 80.823 569.701 80.823H555.57ZM562.91 56.1468V61.293H569.49C571.346 61.1664 572.443 60.2384 572.443 58.6777C572.443 57.1592 571.304 56.1468 569.237 56.1468H562.91ZM562.91 67.6624V74.2005H569.406C572.358 74.2427 573.202 72.7663 573.202 70.9104C573.202 69.1809 572.105 67.6624 569.068 67.6624H562.91ZM583.108 48.8916H590.448V80.823H583.108V48.8916ZM605.291 74.7067C608.117 74.7067 610.69 72.8929 610.69 69.1809C610.69 65.6377 608.117 63.6551 605.291 63.6551C602.549 63.6551 600.06 65.6377 600.06 69.1809C600.06 72.8929 602.549 74.7067 605.291 74.7067ZM605.375 81.3714C597.994 81.3714 592.763 76.5205 592.763 69.1809C592.763 61.546 598.458 56.9904 605.375 56.9904C612.293 56.9904 617.988 61.546 617.988 69.1809C617.988 76.5205 612.757 81.3714 605.375 81.3714ZM631.8 73.4412C634.837 73.3991 636.483 71.4165 636.483 68.8013C636.483 65.1315 634.331 63.4442 631.8 63.3177C629.734 63.1911 627.287 64.5409 627.118 68.4216C626.95 71.8805 629.185 73.4834 631.8 73.4412ZM643.991 76.8158C643.991 81.1605 643.4 84.071 640.026 86.4753C637.411 88.247 633.656 88.6266 629.902 88.4579C627.329 88.3313 623.997 87.5721 620.875 85.7583L623.912 80.0216C626.823 81.6666 629.565 82.5525 632.813 82.215C635.639 81.8776 636.609 80.2325 636.609 78.7139V77.7016C635.512 78.8827 633.108 79.6841 630.662 79.6841C625.684 79.6841 619.694 76.3518 619.947 68.7591C620.243 60.4071 625.262 56.7795 631.083 57.0748C633.53 57.1592 635.386 58.045 636.609 59.2682V57.6232H643.991V76.8158Z" fill="white"/>
<path d="M540.247 88.3416L541.337 93.4167L546.412 94.5065L541.337 95.5964L540.247 100.672L539.157 95.5964L534.082 94.5065L539.157 93.4167L540.247 88.3416Z" fill="white"/>
<rect x="549.657" y="94.1821" width="99.8506" height="0.648947" fill="white"/>
<path d="M658.917 88.3416L660.007 93.4167L665.082 94.5065L660.007 95.5964L658.917 100.672L657.827 95.5964L652.752 94.5065L657.827 93.4167L658.917 88.3416Z" fill="white"/>
</svg>
